{
  "title": "Geordie Shore S10E08 WEB-DL ( FINAL )",
  "uid": 11966180,
  "size": 525475260,
  "categoryP": "video",
  "categoryS": "tv_shows",
  "magnet": "?xt=urn:btih:167a78b0b7ed209ce09c9c5df20070ecb496f1a9&amp;dn=Geordie+Shore+S10E08+WEB-DL+%28+FINAL+%29&amp;tr=udp%3A%2F%2Ftracker.openbittorrent.com%3A80&amp;tr=udp%3A%2F%2Fopen.demonii.com%3A1337&amp;tr=udp%3A%2F%2Ftracker.coppersurfer.tk%3A6969&amp;tr=udp%3A%2F%2Fexodus.desync.com%3A6969",
  "seeders": 54,
  "leechers": 2,
  "uploader": "jmanwf",
  "files": 2,
  "time": 1432715642,
  "description": "Scotty T is back to 'jump start' the final episode with a dare-devil activity for his Geordie crew. / Geordie Shore season 10 promises even more mortal mayhem, with two new housemates in the mix! How will the lasses react to Chloe and will the lads welcome Nathan into the buck squad with open arms? This season also sees the sad departure of an original Geordie Shore family member.\n\n\nVideo\nID : 2\nFormat : AVC\nFormat/Info : Advanced Video Codec\nFormat profile : Baseline@L3\nFormat settings, CABAC : No\nFormat settings, ReFrames : 1 frame\nCodec ID : avc1\nCodec ID/Info : Advanced Video Coding\nDuration : 42mn 36s\nBit rate : 1 516 Kbps\nWidth : 640 pixels\nHeight : 480 pixels\nDisplay aspect ratio : 16:9\nFrame rate mode : Constant\nFrame rate : 25.000 fps\nColor space : YUV\nChroma subsampling : 4:2:0\nBit depth : 8 bits\nScan type : Progressive\nBits/(Pixel*Frame) : 0.197\nStream size : 462 MiB (92%)\nLanguage : English\nEncoded date : UTC 2015-05-27 04:46:24\nTagged date : UTC 2015-05-27 04:48:30\nColor range : Limited\nColor primaries : BT.601 NTSC\nTransfer characteristics : BT.709\nMatrix coefficients : BT.601\n\nAudio\nID : 1\nFormat : AAC\nFormat/Info : Advanced Audio Codec\nFormat profile : LC\nCodec ID : 40\nDuration : 42mn 36s\nDuration_LastFrame : -8ms\nBit rate mode : Variable\nBit rate : 125 Kbps\nMaximum bit rate : 195 Kbps\nChannel(s) : 2 channels\nChannel positions : Front: L R\nSampling rate : 44.1 KHz\nCompression mode : Lossy\nStream size : 38.2 MiB (8%)\nLanguage : English\nEncoded date : UTC 2015-05-27 04:46:24\nTagged date : UTC 2015-05-27 04:48:30\n\nText\nID : 3-CC1\nFormat : EIA-608\nMuxing mode : Final Cut\nCodec ID : c608\nDuration : 42mn 34s\nBit rate mode : Constant\nStream size : 0.00 Byte (0%)\nLanguage : English\nEncoded date : UTC 2015-05-27 04:46:24\nTagged date : UTC 2015-05-27 04:47:38\n\n\n\n &lt;a href=&quot;\nhttps://itunes.apple.com/gb/tv-season/geordie-shore-season-10/id979550691&quot; rel=&quot;nofollow&quot; target=&quot;_NEW&quot;&gt;\nhttps://itunes.apple.com/gb/tv-season/geordie-shore-season-10/id979550691&lt;/a&gt;",
  "parsed": {
    "xt": "urn:btih:167a78b0b7ed209ce09c9c5df20070ecb496f1a9",
    "dn": "Geordie Shore S10E08 WEB-DL ( FINAL )",
    "tr": [
      "udp://exodus.desync.com:6969",
      "udp://open.demonii.com:1337",
      "udp://tracker.coppersurfer.tk:6969",
      "udp://tracker.openbittorrent.com:80"
    ],
    "infoHash": "167a78b0b7ed209ce09c9c5df20070ecb496f1a9",
    "infoHashBuffer": {
      "type": "Buffer",
      "data": [
        22,
        122,
        120,
        176,
        183,
        237,
        32,
        156,
        224,
        156,
        156,
        93,
        242,
        0,
        112,
        236,
        180,
        150,
        241,
        169
      ]
    },
    "name": "Geordie Shore S10E08 WEB-DL ( FINAL )",
    "announce": [
      "udp://exodus.desync.com:6969",
      "udp://open.demonii.com:1337",
      "udp://tracker.coppersurfer.tk:6969",
      "udp://tracker.openbittorrent.com:80"
    ],
    "urlList": []
  },
  "previous": 56,
  "peers": 2,
  "last_updated": "2016-12-24T18:08:39.630Z"
}